<svg width="385" height="263" viewBox="0 0 385 263" fill="none" xmlns="http://www.w3.org/2000/svg">
<path d="M88.8417 69.12H45.0657L57.2577 -7.62939e-06H74.5377L65.0337 54.144H91.5297L88.8417 69.12ZM116.214 70.464C102.902 70.464 96.2464 65.856 96.2464 56.64C96.2464 55.36 96.3744 53.984 96.6304 52.512L98.6464 40.608C99.7344 34.464 102.55 29.76 107.094 26.496C111.702 23.168 117.782 21.504 125.334 21.504C138.198 21.504 144.63 26.368 144.63 36.096C144.63 37.504 144.502 39.04 144.246 40.704L143.094 47.52H113.814L113.43 49.728C113.302 50.496 113.238 51.2 113.238 51.84C113.238 55.36 115.318 57.12 119.478 57.12C121.014 57.12 122.326 56.64 123.414 55.68C124.502 54.72 125.142 53.6 125.334 52.32L141.27 52.512C139.158 64.48 130.806 70.464 116.214 70.464ZM127.734 41.664C127.99 40.576 128.118 39.584 128.118 38.688C128.118 37.728 127.702 36.768 126.87 35.808C126.038 34.848 124.694 34.368 122.838 34.368C121.046 34.368 119.382 34.976 117.846 36.192C116.374 37.408 115.35 39.232 114.774 41.664H127.734ZM194.815 54.336C194.815 56 195.647 56.832 197.311 56.832C199.039 56.832 200.479 56.512 201.631 55.872L201.151 66.72C198.079 69.216 194.623 70.464 190.783 70.464C183.743 70.464 179.839 67.904 179.071 62.784C175.871 67.904 171.167 70.464 164.959 70.464C154.463 70.464 149.215 65.952 149.215 56.928C149.215 55.392 149.375 53.696 149.695 51.84L151.711 40.608C152.735 34.848 155.071 30.272 158.719 26.88C162.431 23.424 167.231 21.696 173.119 21.696C179.071 21.696 183.103 23.072 185.215 25.824L185.695 22.944H200.287L194.911 53.184C194.847 53.568 194.815 53.952 194.815 54.336ZM166.399 49.728C166.271 50.304 166.207 51.104 166.207 52.128C166.207 53.152 166.687 54.176 167.647 55.2C168.607 56.16 170.207 56.64 172.447 56.64C174.751 56.64 176.735 55.744 178.399 53.952L181.279 37.824C180.575 36.224 178.911 35.424 176.287 35.424C171.359 35.424 168.479 37.792 167.647 42.528L166.399 49.728ZM254.101 32.736C254.101 34.912 253.717 37.024 252.949 39.072C252.245 41.12 251.541 42.624 250.837 43.584L249.781 44.928H235.285C236.885 43.456 237.685 41.632 237.685 39.456C237.685 38.304 237.301 37.376 236.533 36.672C235.829 35.904 234.837 35.52 233.557 35.52C231.381 35.52 229.493 36.608 227.893 38.784L222.517 69.12H206.197L214.357 22.944H229.525L228.373 29.376C232.021 24.192 236.437 21.6 241.621 21.6C245.781 21.6 248.885 22.592 250.933 24.576C253.045 26.56 254.101 29.28 254.101 32.736ZM287.766 39.648C287.766 36.896 286.422 35.52 283.734 35.52C281.11 35.52 278.934 36.512 277.206 38.496L271.83 69.12H255.51L263.67 22.944H278.838L277.782 28.608C281.558 23.936 286.326 21.6 292.086 21.6C297.846 21.6 301.59 23.008 303.318 25.824C304.406 27.616 304.95 29.664 304.95 31.968C304.95 34.272 304.79 36.416 304.47 38.4L301.878 53.184C301.814 53.568 301.782 53.92 301.782 54.24C301.782 55.968 302.742 56.832 304.662 56.832C306.134 56.832 307.446 56.512 308.598 55.872L308.118 66.72C305.11 69.216 301.686 70.464 297.846 70.464C289.142 70.464 284.79 66.816 284.79 59.52C284.79 58.24 284.918 56.864 285.174 55.392L287.478 42.624C287.67 41.472 287.766 40.48 287.766 39.648ZM55.4881 96L53.8561 148.32H56.0641L72.7681 96H91.5841L67.8721 165.12H39.0721L41.6641 120.864L28.8001 165.12H7.4625e-05L0.672075 96H19.4881L17.7601 148.32H19.9681L36.7681 96H55.4881ZM109.344 152.832C110.816 152.832 112.128 152.512 113.28 151.872L112.8 162.72C109.792 165.216 106.368 166.464 102.528 166.464C96.7041 166.464 92.9281 165.12 91.2001 162.432C90.0481 160.64 89.4721 158.752 89.4721 156.768C89.4721 154.72 89.6001 152.928 89.8561 151.392L95.6161 118.944H111.936L106.56 149.184C106.496 149.568 106.464 149.92 106.464 150.24C106.464 151.968 107.424 152.832 109.344 152.832ZM97.5361 103.296C97.5361 99.2 98.4321 96.224 100.224 94.368C102.08 92.448 104.928 91.488 108.768 91.488C114.144 91.488 116.832 93.856 116.832 98.592C116.832 102.624 115.904 105.568 114.048 107.424C112.256 109.28 109.408 110.208 105.504 110.208C100.192 110.208 97.5361 107.904 97.5361 103.296ZM139.726 166.464C132.302 166.464 126.958 164.8 123.694 161.472C121.262 159.04 120.046 155.776 120.046 151.68C120.046 150.336 120.174 148.896 120.43 147.36L126.958 110.208L144.526 102.912L141.742 118.944H168.238L165.838 132.48H139.342L137.422 143.328C137.166 144.544 137.038 145.632 137.038 146.592C137.038 150.624 138.958 152.64 142.798 152.64C144.846 152.64 146.542 151.776 147.886 150.048C149.294 148.32 150.254 146.016 150.766 143.136H166.702C164.014 158.688 155.022 166.464 139.726 166.464ZM221.693 152.832C223.165 152.832 224.477 152.512 225.629 151.872L225.149 162.72C222.141 165.216 218.717 166.464 214.877 166.464C206.173 166.464 201.821 162.816 201.821 155.52C201.821 154.24 201.949 152.864 202.205 151.392L204.317 139.584C204.509 138.432 204.605 137.28 204.605 136.128C204.605 133.056 202.973 131.52 199.709 131.52C196.509 131.52 194.013 132.608 192.221 134.784L186.845 165.12H170.525L183.389 92.256H199.709L194.237 123.264C197.757 119.488 202.173 117.6 207.485 117.6C213.949 117.6 218.141 119.04 220.061 121.92C221.405 123.84 222.077 125.984 222.077 128.352C222.077 130.72 221.885 132.896 221.501 134.88L218.909 149.184C218.845 149.568 218.813 149.92 218.813 150.24C218.813 151.968 219.773 152.832 221.693 152.832ZM284.321 96L294.593 129.12L316.673 96H334.817L322.625 165.12H305.249L312.161 126.144L297.377 149.376H284.801L278.273 126.144L271.361 165.12H254.081L266.273 96H284.321ZM355.98 166.464C342.668 166.464 336.012 161.856 336.012 152.64C336.012 151.36 336.14 149.984 336.396 148.512L338.412 136.608C339.5 130.464 342.316 125.76 346.86 122.496C351.468 119.168 357.548 117.504 365.1 117.504C377.964 117.504 384.396 122.368 384.396 132.096C384.396 133.504 384.268 135.04 384.012 136.704L382.86 143.52H353.58L353.196 145.728C353.068 146.496 353.004 147.2 353.004 147.84C353.004 151.36 355.084 153.12 359.244 153.12C360.78 153.12 362.092 152.64 363.18 151.68C364.268 150.72 364.908 149.6 365.1 148.32L381.036 148.512C378.924 160.48 370.572 166.464 355.98 166.464ZM367.5 137.664C367.756 136.576 367.884 135.584 367.884 134.688C367.884 133.728 367.468 132.768 366.636 131.808C365.804 130.848 364.46 130.368 362.604 130.368C360.812 130.368 359.148 130.976 357.612 132.192C356.14 133.408 355.116 135.232 354.54 137.664H367.5ZM59.2298 241.44C59.2298 245.856 62.3978 248.064 68.7338 248.064C75.1338 248.064 78.3338 246.08 78.3338 242.112C78.3338 240 77.2458 238.272 75.0698 236.928C72.8938 235.584 70.2378 234.464 67.1018 233.568C64.0298 232.672 60.9258 231.648 57.7898 230.496C54.7178 229.28 52.0938 227.424 49.9178 224.928C47.7418 222.368 46.6538 219.2 46.6538 215.424C46.6538 199.36 56.9898 191.328 77.6618 191.328C85.2138 191.328 90.9098 192.768 94.7498 195.648C98.6538 198.464 100.606 202.4 100.606 207.456C100.606 209.312 100.35 211.104 99.8378 212.832C99.3898 214.496 98.9098 215.68 98.3978 216.384L97.6298 217.536H80.6378C82.0458 216.064 82.7498 214.208 82.7498 211.968C82.7498 207.808 80.0298 205.728 74.5898 205.728C67.7418 205.728 64.3178 207.904 64.3178 212.256C64.3178 214.432 65.4058 216.16 67.5818 217.44C69.7578 218.72 72.3818 219.744 75.4538 220.512C78.5898 221.216 81.7258 222.112 84.8618 223.2C87.9978 224.288 90.6538 226.112 92.8298 228.672C95.0058 231.168 96.0938 234.432 96.0938 238.464C96.0938 246.592 93.6618 252.64 88.7978 256.608C83.9338 260.512 76.4458 262.464 66.3338 262.464C56.2218 262.464 49.3098 260.672 45.5978 257.088C42.8458 254.4 41.4698 250.688 41.4698 245.952C41.4698 244.16 41.6618 242.208 42.0458 240.096L42.3338 238.56H59.6138L59.4218 239.712C59.2938 240.352 59.2298 240.928 59.2298 241.44ZM122.824 262.464C109.512 262.464 102.856 257.856 102.856 248.64C102.856 247.36 102.984 245.984 103.24 244.512L105.256 232.608C106.344 226.464 109.16 221.76 113.704 218.496C118.312 215.168 124.392 213.504 131.944 213.504C144.808 213.504 151.24 218.368 151.24 228.096C151.24 229.504 151.112 231.04 150.856 232.704L149.704 239.52H120.424L120.04 241.728C119.912 242.496 119.848 243.2 119.848 243.84C119.848 247.36 121.928 249.12 126.088 249.12C127.624 249.12 128.936 248.64 130.024 247.68C131.112 246.72 131.752 245.6 131.944 244.32L147.88 244.512C145.768 256.48 137.416 262.464 122.824 262.464ZM134.344 233.664C134.6 232.576 134.728 231.584 134.728 230.688C134.728 229.728 134.312 228.768 133.48 227.808C132.648 226.848 131.304 226.368 129.448 226.368C127.656 226.368 125.992 226.976 124.456 228.192C122.984 229.408 121.96 231.232 121.384 233.664H134.344ZM202.961 224.736C202.961 226.912 202.577 229.024 201.809 231.072C201.105 233.12 200.401 234.624 199.697 235.584L198.641 236.928H184.145C185.745 235.456 186.545 233.632 186.545 231.456C186.545 230.304 186.161 229.376 185.393 228.672C184.689 227.904 183.697 227.52 182.417 227.52C180.241 227.52 178.353 228.608 176.753 230.784L171.377 261.12H155.057L163.217 214.944H178.385L177.233 221.376C180.881 216.192 185.297 213.6 190.481 213.6C194.641 213.6 197.745 214.592 199.793 216.576C201.905 218.56 202.961 221.28 202.961 224.736ZM225.969 248.832C227.441 248.832 228.753 248.512 229.905 247.872L229.425 258.72C226.417 261.216 222.993 262.464 219.153 262.464C213.329 262.464 209.553 261.12 207.825 258.432C206.673 256.64 206.097 254.752 206.097 252.768C206.097 250.72 206.225 248.928 206.481 247.392L212.241 214.944H228.561L223.185 245.184C223.121 245.568 223.089 245.92 223.089 246.24C223.089 247.968 224.049 248.832 225.969 248.832ZM214.161 199.296C214.161 195.2 215.057 192.224 216.849 190.368C218.705 188.448 221.553 187.488 225.393 187.488C230.769 187.488 233.457 189.856 233.457 194.592C233.457 198.624 232.529 201.568 230.673 203.424C228.881 205.28 226.033 206.208 222.129 206.208C216.817 206.208 214.161 203.904 214.161 199.296ZM255.199 262.464C241.887 262.464 235.231 257.856 235.231 248.64C235.231 247.36 235.359 245.984 235.615 244.512L237.631 232.608C238.719 226.464 241.535 221.76 246.079 218.496C250.687 215.168 256.767 213.504 264.319 213.504C277.183 213.504 283.615 218.368 283.615 228.096C283.615 229.504 283.487 231.04 283.231 232.704L282.079 239.52H252.799L252.415 241.728C252.287 242.496 252.223 243.2 252.223 243.84C252.223 247.36 254.303 249.12 258.463 249.12C259.999 249.12 261.311 248.64 262.399 247.68C263.487 246.72 264.127 245.6 264.319 244.32L280.255 244.512C278.143 256.48 269.791 262.464 255.199 262.464ZM266.719 233.664C266.975 232.576 267.103 231.584 267.103 230.688C267.103 229.728 266.687 228.768 265.855 227.808C265.023 226.848 263.679 226.368 261.823 226.368C260.031 226.368 258.367 226.976 256.831 228.192C255.359 229.408 254.335 231.232 253.759 233.664H266.719ZM336.776 224.928C336.776 227.04 336.136 228.992 334.856 230.784H319.112C319.624 230.4 319.88 229.76 319.88 228.864C319.88 227.968 319.368 227.264 318.344 226.752C317.32 226.176 316.008 225.888 314.408 225.888C309.608 225.888 307.208 227.36 307.208 230.304C307.208 231.456 308.104 232.288 309.896 232.8C311.688 233.312 313.864 233.728 316.424 234.048C318.984 234.368 321.544 234.848 324.104 235.488C326.664 236.064 328.84 237.248 330.632 239.04C332.424 240.832 333.32 243.232 333.32 246.24C333.32 251.552 331.176 255.584 326.888 258.336C322.664 261.088 316.488 262.464 308.36 262.464C300.232 262.464 294.536 261.152 291.272 258.528C288.712 256.48 287.432 253.664 287.432 250.08C287.432 249.056 287.528 248 287.72 246.912L303.752 246.72C303.624 247.616 304.136 248.416 305.288 249.12C306.504 249.76 308.264 250.08 310.568 250.08C312.872 250.08 314.536 249.856 315.56 249.408C316.584 248.896 317.096 247.968 317.096 246.624C317.096 245.728 316.2 245.12 314.408 244.8C312.616 244.416 310.408 244.096 307.784 243.84C305.224 243.584 302.632 243.168 300.008 242.592C297.448 242.016 295.272 240.8 293.48 238.944C291.688 237.088 290.792 234.656 290.792 231.648C290.792 225.824 293.032 221.344 297.512 218.208C302.056 215.072 308.584 213.504 317.096 213.504C330.216 213.504 336.776 217.312 336.776 224.928Z" fill="white"/>
</svg>
